<svg width="19" height="19" viewBox="0 0 19 19" fill="none" xmlns="http://www.w3.org/2000/svg">
<path d="M9.50094 1.83576C11.9973 1.83576 12.2927 1.84541 13.2787 1.89031C14.1901 1.93187 14.6851 2.08402 15.0146 2.21205C15.4511 2.38164 15.7624 2.58426 16.0897 2.91119C16.417 3.2385 16.6196 3.54984 16.7888 3.98625C16.9169 4.31578 17.069 4.81082 17.1106 5.72223C17.1555 6.70785 17.1651 7.00361 17.1651 9.49996C17.1651 11.9963 17.1555 12.2917 17.1106 13.2777C17.069 14.1891 16.9169 14.6841 16.7888 15.0137C16.6193 15.4501 16.4166 15.7614 16.0897 16.0887C15.7624 16.416 15.4511 16.6187 15.0146 16.7879C14.6851 16.9159 14.1901 17.068 13.2787 17.1096C12.293 17.1545 11.9973 17.1642 9.50094 17.1642C7.00459 17.1642 6.70883 17.1545 5.7232 17.1096C4.8118 17.068 4.31676 16.9159 3.98723 16.7879C3.55082 16.6183 3.23947 16.4157 2.91217 16.0887C2.58486 15.7614 2.38225 15.4501 2.21303 15.0137C2.085 14.6841 1.93285 14.1891 1.89129 13.2777C1.84639 12.2921 1.83674 11.9963 1.83674 9.49996C1.83674 7.00361 1.84639 6.70822 1.89129 5.72223C1.93285 4.81082 2.085 4.31578 2.21303 3.98625C2.38262 3.54984 2.58523 3.2385 2.91217 2.91119C3.23947 2.58389 3.55082 2.38127 3.98723 2.21205C4.31676 2.08402 4.8118 1.93187 5.7232 1.89031C6.7092 1.84541 7.00459 1.83576 9.50094 1.83576ZM9.50094 0.151367C6.96191 0.151367 6.64352 0.162129 5.64639 0.207773C4.65148 0.253047 3.97164 0.411133 3.37715 0.642324C2.76225 0.881308 2.24086 1.20082 1.72133 1.72072C1.2018 2.24025 0.881914 2.76164 0.64293 3.37617C0.411738 3.97066 0.253652 4.65051 0.208379 5.64541C0.163105 6.64254 0.152344 6.96094 0.152344 9.49996C0.152344 12.039 0.163105 12.3574 0.20875 13.3545C0.254023 14.3494 0.412109 15.0293 0.643301 15.6237C0.882285 16.2386 1.2018 16.76 1.7217 17.2796C2.2416 17.7995 2.76262 18.119 3.37752 18.358C3.97201 18.5892 4.65185 18.7472 5.64676 18.7925C6.64389 18.8382 6.96229 18.8489 9.50131 18.8489C12.0403 18.8489 12.3587 18.8382 13.3559 18.7925C14.3508 18.7472 15.0306 18.5892 15.6251 18.358C16.24 18.119 16.7614 17.7995 17.2809 17.2796C17.8008 16.7597 18.1203 16.2386 18.3593 15.6237C18.5905 15.0293 18.7486 14.3494 18.7939 13.3545C18.8395 12.3574 18.8503 12.039 18.8503 9.49996C18.8503 6.96094 18.8395 6.64254 18.7939 5.64541C18.7486 4.65051 18.5905 3.97066 18.3593 3.37617C18.1203 2.76127 17.8008 2.23988 17.2809 1.72035C16.761 1.20045 16.24 0.880937 15.6251 0.641953C15.0306 0.410762 14.3508 0.252676 13.3559 0.207402C12.3584 0.162129 12.04 0.151367 9.50094 0.151367Z" fill="#333333"/>
<path d="M9.50164 4.69946C6.85018 4.69946 4.70117 6.84884 4.70117 9.49993C4.70117 12.151 6.85018 14.3004 9.50164 14.3004C12.1531 14.3004 14.3021 12.1514 14.3021 9.49993C14.3021 6.84847 12.1531 4.69946 9.50164 4.69946ZM9.50164 12.616C7.78051 12.616 6.38557 11.2207 6.38557 9.49993C6.38557 7.77917 7.78088 6.38386 9.50164 6.38386C11.2228 6.38386 12.6177 7.77917 12.6177 9.49993C12.6177 11.2207 11.2228 12.616 9.50164 12.616Z" fill="#333333"/>
<path d="M14.491 5.63133C15.1105 5.63133 15.6128 5.12908 15.6128 4.50951C15.6128 3.88995 15.1105 3.3877 14.491 3.3877C13.8714 3.3877 13.3691 3.88995 13.3691 4.50951C13.3691 5.12908 13.8714 5.63133 14.491 5.63133Z" fill="#333333"/>
</svg>
